<?xml version="1.0" encoding="UTF-8"?>
<!-- Created with Inkscape (http://www.inkscape.org/) -->
<svg width="25000" height="24673" version="1.1" viewBox="0 0 25000 24673" xmlns="http://www.w3.org/2000/svg" xmlns:cc="http://creativecommons.org/ns#" xmlns:dc="http://purl.org/dc/elements/1.1/" xmlns:rdf="http://www.w3.org/1999/02/22-rdf-syntax-ns#">
 <metadata>
  <rdf:RDF>
   <cc:Work rdf:about="">
    <dc:format>image/svg+xml</dc:format>
    <dc:type rdf:resource="http://purl.org/dc/dcmitype/StillImage"/>
    <dc:title/>
   </cc:Work>
  </rdf:RDF>
 </metadata>
 <g>
  <path d="m12459 0.11785c-1539.4 14.13-2639.5 1372.3-2639.5 1372.3s-3687.3 3741.8-4875.8 5055.4c-362.86 401.07-1515.6 1509.2-2431.4 2441.8-1933.1 1968.4-3980.8 3799.7-1032.9 4589.5 3144.5 842.56 3330.4 959.49 3807.1 1286.6 435.33 298.76 745.63 247.16-1204.7 1248-1745 895.44-631.87 1284.8-206.81 1482.2 1413 656.16 3378.3 1115.6 4635.7 1705.8 1257.4 590.22-365.18 1839.9-365.18 1839.9-319.73 400.69-340.69 764.84-225.01 880.27 750.04 748.45 1907.2 491.9 2443.8 899.73 907.15 689.4 447.02 1413.1 1071.9 1692.2 1363.3 608.75 3695.3-487.57 4362.5-975.15 667.21-487.58-51.336-821.2-51.336-821.2-1284.7-373.24-564.58-898.15-564.58-898.15 1103.6-1209.4 3393.4-1634.9 3393.4-1634.9s2105.4-991.92 635.59-2034.8c-1440.3-1021.9-2977.4-1079.3-436.24-2104.3 3053.8-1231.8 2283.9-333.6 5055.4-1950.3s-256.62-3951.9-256.62-3951.9-5748.2-5594.3-8494.1-8725.1c-900.97-1027.3-1777.1-1383.2-2547.6-1397.7-24.654-0.463-49.19-0.551-73.625-0.327zm41.09 924.63c1028.2-18.132 1669.2 794.17 1669.2 794.17s2630.4 2656 3310.4 3323.2 307.9 1424.2 307.9 1424.2l-1847.6-1449.9-333.62 2168.4-1501.2-821.14-2437.9 1514.1-795.53-3207.7-1321.6 2797.1s-2091.4-12.807-3092.3-12.807c-1000.8 0-359.29-898.2-359.29-898.2s2425-2643.2 4503.7-4683.3c714.52-701.29 1359.3-938.62 1897.9-948.12zm-4546.1 14402s1651.2 127.06 3302.5 508.12c1651.3 381.06 1742 635.1 1742 635.1s181.44 145.14-290.35 362.89-1360.9-18.147-1360.9-18.147-3538.4-979.88-3393.2-1488z"/>
  <path d="m7827.4 20353s-308.48 1125-1397.2 1379.1c-1088.7 254.04-1360.9-580.66-1360.9-580.66s-90.729-616.95 453.64-925.43c544.37-308.48 1796.4-616.95 2304.5 127.02z"/>
  <path d="m20421 19990s762.12 127.02 1088.7 598.81c326.62 471.79 163.31 671.39 163.31 671.39-25.304 202.43-1020.2 375.34-1414.3-28.269-212.2-217.3-427.11-661.42 162.24-1241.9z"/>
  <path d="m20856 19065s326.62-1052.5 1506.1-1179.5 1723.8 471.79 1723.8 471.79 417.35 562.52 199.6 780.27c-217.75 217.75-889.14 344.77-1705.7 326.62-816.56-18.146-1723.8-199.6-1723.8-399.21z"/>
 </g>
</svg>
